<?xml version="1.0" encoding="UTF-8" ?>
<!DOCTYPE svg PUBLIC "-//W3C//DTD SVG 1.1//EN" "http://www.w3.org/Graphics/SVG/1.1/DTD/svg11.dtd">
<svg width="335pt" height="343pt" viewBox="0 0 335 343" version="1.1" xmlns="http://www.w3.org/2000/svg">
<g id="#ffc000ff">
<path fill="#ffc000" opacity="1.00" d=" M 30.27 0.00 L 32.69 0.00 C 54.52 0.88 75.32 8.68 95.04 17.54 C 113.27 25.84 130.62 35.94 147.43 46.81 C 140.21 46.40 133.15 48.32 126.00 48.92 C 119.15 50.30 112.38 52.12 105.82 54.55 C 89.42 44.69 72.68 35.08 54.57 28.67 C 47.80 26.47 40.56 24.19 33.39 25.56 C 29.18 26.32 26.97 31.02 27.86 34.96 C 29.27 42.77 33.82 49.52 38.18 55.98 C 45.39 66.19 53.69 75.59 62.31 84.62 C 56.41 92.06 51.07 100.03 46.96 108.59 C 33.92 94.15 21.94 78.61 12.49 61.56 C 7.05 51.42 2.28 40.60 1.11 29.04 C 0.33 21.48 1.97 13.10 7.69 7.71 C 13.68 1.96 22.28 0.38 30.27 0.00 Z" />
<path fill="#ffc000" opacity="1.00" d=" M 163.93 95.34 C 175.95 97.84 186.25 106.51 191.01 117.79 C 182.22 110.02 173.10 102.65 163.93 95.34 Z" />
<path fill="#ffc000" opacity="1.00" d=" M 100.22 147.06 C 100.84 139.37 102.83 131.87 105.38 124.61 C 119.12 135.99 133.11 147.07 147.67 157.39 C 143.31 162.42 138.71 168.91 140.54 175.94 C 141.84 180.61 146.61 182.74 150.82 184.12 C 164.04 188.33 177.79 190.55 191.50 192.45 C 191.54 193.03 191.62 194.21 191.66 194.80 C 197.18 194.94 202.72 194.53 208.23 195.15 C 219.67 201.13 231.60 206.60 244.32 209.18 C 239.95 216.54 235.61 223.93 231.18 231.26 C 224.95 229.71 218.80 227.83 212.77 225.61 C 215.47 222.10 218.32 218.41 219.25 213.98 C 219.91 211.49 217.39 209.55 215.07 209.96 C 207.54 210.49 200.82 214.47 194.32 218.01 C 187.76 215.27 181.49 211.91 175.15 208.72 C 148.83 194.76 124.18 177.84 100.85 159.36 C 100.46 158.99 99.69 158.26 99.30 157.90 C 99.85 157.48 100.96 156.63 101.52 156.21 C 101.44 153.09 99.79 150.22 100.22 147.06 Z" />
<path fill="#ffc000" opacity="1.00" d=" M 261.14 151.45 C 268.32 161.32 274.90 171.72 279.91 182.88 C 285.07 194.82 289.70 208.95 284.11 221.58 C 276.57 219.91 268.74 219.61 261.08 220.68 C 260.11 220.63 258.59 221.21 258.09 220.04 C 256.00 216.65 254.10 213.15 252.02 209.76 C 255.07 209.18 258.56 207.95 259.48 204.60 C 260.79 199.43 258.24 194.38 256.20 189.78 C 257.49 186.84 259.69 184.30 260.30 181.08 C 262.08 171.29 260.60 161.30 261.14 151.45 Z" />
<path fill="#ffc000" opacity="1.00" d=" M 216.83 263.24 C 227.94 263.45 238.99 264.99 250.09 265.66 C 251.53 265.98 253.57 265.43 254.45 266.97 C 243.61 266.28 232.80 265.18 221.97 264.40 C 220.21 264.26 218.36 264.22 216.83 263.24 Z" />
<path fill="#ffc000" opacity="1.00" d=" M 322.50 270.00 C 326.55 269.69 330.60 269.20 334.68 269.16 C 330.96 271.27 326.37 270.27 322.29 271.01 C 314.04 271.77 305.76 272.16 297.54 273.23 C 297.54 272.75 297.56 272.27 297.58 271.80 C 305.91 271.63 314.18 270.53 322.50 270.00 Z" />
<path fill="#ffc000" opacity="1.00" d=" M 215.94 284.40 C 228.41 282.03 240.82 279.36 253.30 277.05 C 252.61 278.82 250.48 278.38 249.03 278.88 C 236.93 281.00 224.99 284.11 212.82 285.76 C 213.81 285.20 214.80 284.58 215.94 284.40 Z" />
<path fill="#ffc000" opacity="1.00" d=" M 291.74 283.22 C 299.38 283.91 306.81 286.05 314.36 287.36 C 318.91 288.26 323.45 289.19 328.01 290.05 C 329.57 290.39 331.33 290.52 332.48 291.79 C 326.15 290.98 319.96 289.37 313.68 288.25 C 307.75 287.05 301.81 285.85 295.87 284.72 C 294.40 284.47 293.03 283.94 291.74 283.22 Z" />
</g>
<g id="#004598ff">
<path fill="#004598" opacity="1.00" d=" M 126.00 48.92 C 133.15 48.32 140.21 46.40 147.43 46.81 C 153.32 47.39 159.27 46.23 165.11 47.44 C 172.09 48.03 179.05 48.97 185.86 50.63 C 193.58 51.83 200.57 55.51 207.79 58.30 C 211.43 59.64 214.44 62.12 217.74 64.08 C 233.49 73.72 244.87 89.24 251.96 106.08 C 257.35 120.60 260.44 136.01 261.14 151.45 C 260.60 161.30 262.08 171.29 260.30 181.08 C 259.69 184.30 257.49 186.84 256.20 189.78 C 253.17 192.10 249.83 194.30 245.93 194.65 C 233.37 195.37 220.78 194.76 208.23 195.15 C 202.72 194.53 197.18 194.94 191.66 194.80 C 191.62 194.21 191.54 193.03 191.50 192.45 C 177.79 190.55 164.04 188.33 150.82 184.12 C 146.61 182.74 141.84 180.61 140.54 175.94 C 138.71 168.91 143.31 162.42 147.67 157.39 C 151.28 153.68 155.60 150.63 160.33 148.55 C 172.19 144.22 185.03 145.75 197.35 144.75 C 197.12 135.51 195.17 126.08 191.01 117.79 C 186.25 106.51 175.95 97.84 163.93 95.34 C 152.48 92.52 139.92 93.19 129.08 98.04 C 117.89 103.09 109.67 113.30 105.38 124.61 C 102.83 131.87 100.84 139.37 100.22 147.06 C 99.79 150.22 101.44 153.09 101.52 156.21 C 100.96 156.63 99.85 157.48 99.30 157.90 C 99.69 158.26 100.46 158.99 100.85 159.36 C 101.63 165.95 103.30 172.40 104.25 178.96 C 105.40 193.95 104.68 208.99 105.10 223.99 C 105.03 228.29 107.36 232.03 109.35 235.66 C 117.58 248.42 131.81 256.38 146.70 258.44 C 159.67 241.97 176.41 228.73 194.32 218.01 C 200.82 214.47 207.54 210.49 215.07 209.96 C 217.39 209.55 219.91 211.49 219.25 213.98 C 218.32 218.41 215.47 222.10 212.77 225.61 C 201.78 239.02 187.97 249.74 173.84 259.63 C 189.29 258.45 204.73 255.62 219.36 250.38 C 221.33 245.94 223.76 241.68 227.08 238.11 C 228.99 236.17 229.92 233.60 231.18 231.26 C 235.61 223.93 239.95 216.54 244.32 209.18 C 245.52 207.14 246.75 205.11 248.00 203.09 C 249.37 205.30 250.71 207.52 252.02 209.76 C 254.10 213.15 256.00 216.65 258.09 220.04 C 258.59 221.21 260.11 220.63 261.08 220.68 C 268.74 219.61 276.57 219.91 284.11 221.58 C 287.12 222.22 289.97 223.48 292.99 224.08 C 302.02 220.30 310.67 215.60 319.60 211.57 C 319.42 222.04 318.83 232.51 318.49 242.98 C 318.25 246.23 320.13 249.05 321.09 252.04 C 323.20 257.77 323.20 264.01 322.50 270.00 C 314.18 270.53 305.91 271.63 297.58 271.80 C 297.56 272.27 297.54 272.75 297.54 273.23 C 305.76 272.16 314.04 271.77 322.29 271.01 C 320.83 276.96 318.12 282.53 314.36 287.36 C 306.81 286.05 299.38 283.91 291.74 283.22 C 293.03 283.94 294.40 284.47 295.87 284.72 C 301.81 285.85 307.75 287.05 313.68 288.25 C 294.60 309.66 259.01 313.21 235.90 296.38 C 226.36 300.00 216.37 302.15 206.55 304.75 C 211.11 307.38 216.31 308.61 221.05 310.91 C 233.28 316.36 245.51 322.47 255.63 331.37 C 257.95 333.72 261.48 336.60 260.41 340.31 C 257.95 343.31 253.52 342.61 250.08 342.53 C 236.97 341.15 224.49 336.48 212.39 331.47 C 199.29 325.66 186.20 319.12 175.54 309.37 C 164.69 309.21 153.84 309.34 142.99 309.32 C 135.64 308.27 128.17 308.16 120.89 306.53 C 110.43 304.63 100.33 301.18 90.52 297.13 C 79.04 291.00 67.69 283.85 59.52 273.52 C 55.30 268.82 52.05 263.37 48.64 258.10 C 37.87 237.78 34.09 214.59 32.56 191.95 C 32.72 183.62 32.43 175.29 32.69 166.97 C 33.74 162.98 33.30 158.82 34.20 154.81 C 35.17 144.38 38.05 134.25 40.70 124.15 C 42.72 118.94 44.95 113.81 46.96 108.59 C 51.07 100.03 56.41 92.06 62.31 84.62 C 67.31 77.60 74.24 72.36 81.11 67.31 C 88.83 62.16 96.89 57.29 105.82 54.55 C 112.38 52.12 119.15 50.30 126.00 48.92 M 250.59 248.79 C 248.68 249.33 245.36 249.40 245.04 251.90 C 248.21 254.75 252.90 254.51 256.89 254.93 C 262.07 254.87 267.81 255.18 272.40 252.44 C 274.02 251.06 271.50 249.84 270.36 249.49 C 263.94 247.74 257.12 247.68 250.59 248.79 M 285.91 255.01 C 286.34 257.61 288.92 258.79 291.03 259.84 C 297.01 262.52 303.57 264.19 310.16 263.97 C 311.48 264.02 314.25 262.97 312.74 261.28 C 309.69 258.03 305.10 256.86 300.98 255.51 C 296.11 254.39 290.70 252.91 285.91 255.01 M 216.83 263.24 C 218.36 264.22 220.21 264.26 221.97 264.40 C 232.80 265.18 243.61 266.28 254.45 266.97 C 253.57 265.43 251.53 265.98 250.09 265.66 C 238.99 264.99 227.94 263.45 216.83 263.24 M 215.94 284.40 C 214.80 284.58 213.81 285.20 212.82 285.76 C 224.99 284.11 236.93 281.00 249.03 278.88 C 250.48 278.38 252.61 278.82 253.30 277.05 C 240.82 279.36 228.41 282.03 215.94 284.40 Z" />
</g>
<g id="#f557deff">
<path fill="#f557de" opacity="1.00" d=" M 129.08 98.04 C 139.92 93.19 152.48 92.52 163.93 95.34 C 173.10 102.65 182.22 110.02 191.01 117.79 C 195.17 126.08 197.12 135.51 197.35 144.75 C 185.03 145.75 172.19 144.22 160.33 148.55 C 155.60 150.63 151.28 153.68 147.67 157.39 C 133.11 147.07 119.12 135.99 105.38 124.61 C 109.67 113.30 117.89 103.09 129.08 98.04 Z" />
<path fill="#f557de" opacity="1.00" d=" M 100.85 159.36 C 124.18 177.84 148.83 194.76 175.15 208.72 C 162.74 210.70 149.77 210.36 137.90 205.92 C 124.20 200.91 111.85 191.50 104.25 178.96 C 103.30 172.40 101.63 165.95 100.85 159.36 Z" />
<path fill="#f557de" opacity="1.00" d=" M 250.59 248.79 C 257.12 247.68 263.94 247.74 270.36 249.49 C 271.50 249.84 274.02 251.06 272.40 252.44 C 267.81 255.18 262.07 254.87 256.89 254.93 C 252.90 254.51 248.21 254.75 245.04 251.90 C 245.36 249.40 248.68 249.33 250.59 248.79 Z" />
<path fill="#f557de" opacity="1.00" d=" M 285.91 255.01 C 290.70 252.91 296.11 254.39 300.98 255.51 C 305.10 256.86 309.69 258.03 312.74 261.28 C 314.25 262.97 311.48 264.02 310.16 263.97 C 303.57 264.19 297.01 262.52 291.03 259.84 C 288.92 258.79 286.34 257.61 285.91 255.01 Z" />
</g>
</svg>
