<svg height="512pt" viewBox="0 -2 512.00083 512" width="512pt" xmlns="http://www.w3.org/2000/svg"><path d="m485.855469 265.9375c0 75.867188.652343 145.328125-70.871094 145.328125h-32.894531l-29.320313-66.976563 94.941407-92.773437zm0 0" fill="#c86d5c"/><path d="m104.890625 265.9375c0 75.867188-.652344 145.328125 70.867187 145.328125h32.898438l29.320312-66.976563-94.941406-92.773437zm0 0" fill="#ad4f3d"/><path d="m488.976562 209.945312c0-53.855468-19.992187-104.542968-56.296874-142.730468-36.605469-38.507813-85.371094-59.714844-137.308594-59.714844-51.933594 0-100.699219 21.207031-137.308594 59.714844-36.300781 38.1875-56.292969 88.875-56.292969 142.730468zm0 0" fill="#c86d5c"/><path d="m321.371094 9.3125c-8.546875-1.191406-17.226563-1.8125-26-1.8125-51.9375 0-100.699219 21.207031-137.308594 59.714844-36.300781 38.1875-56.292969 88.875-56.292969 142.730468h51.996094c0-53.855468 19.992187-104.542968 56.296875-142.730468 30.421875-32.003906 69.25-52.042969 111.308594-57.902344zm0 0" fill="#ad4f3d"/><path d="m86.253906 232.285156c0 21.933594 17.78125 39.710938 39.714844 39.710938s19.714844-17.777344 19.714844-39.710938 2.21875-39.714844-19.714844-39.714844-39.714844 17.78125-39.714844 39.714844zm0 0" fill="#e3b098"/><path d="m504.488281 232.285156c0 21.933594-17.78125 39.710938-39.714843 39.710938-21.929688 0-39.710938-17.777344-39.710938-39.710938s17.78125-39.714844 39.710938-39.714844c21.933593 0 39.714843 17.78125 39.714843 39.714844zm0 0" fill="#e3b098"/><path d="m378.628906 366.28125s53.570313 40.371094 53.570313 113.589844h-273.652344c0-73.21875 53.570313-113.589844 53.570313-113.589844zm0 0" fill="#eb6da8"/><path d="m345.324219 375.160156c0 27.585938-22.363281 49.953125-49.953125 49.953125-27.585938 0-49.949219-22.367187-49.949219-49.953125 0-27.585937 22.363281-49.953125 49.949219-49.953125 27.589844 0 49.953125 22.367188 49.953125 49.953125zm0 0" fill="#e3b098"/><path d="m350.664062 92.519531c2.148438-2.007812 5.566407-1.65625 7.277344.730469 28.554688 39.84375 106.550782 99 106.964844 99.3125.523438 5.722656.800781 11.515625.800781 17.382812 0 98.957032-76.261719 179.175782-170.335937 179.175782-94.074219 0-170.332032-80.21875-170.332032-179.175782 0-5.863281.277344-11.65625.800782-17.375 138.007812-26.109374 208.128906-84.472656 224.824218-100.050781zm0 0" fill="#fbc4ac"/><path d="m155.039062 209.945312c0-4.511718.164063-16.03125.476563-23.710937-9.523437 2.265625-19.40625 4.390625-29.675781 6.335937-.523438 5.71875-.800782 11.511719-.800782 17.375 0 98.953126 76.261719 179.175782 170.332032 179.175782 5.058594 0 10.058594-.246094 15-.699219-87.042969-7.992187-155.332032-84.835937-155.332032-178.476563zm0 0" fill="#e3b098"/><path d="m220.140625 263.398438h-22.964844c-4.144531 0-7.5-3.359376-7.5-7.5 0-4.140626 3.355469-7.5 7.5-7.5h22.964844c4.140625 0 7.5 3.359374 7.5 7.5 0 4.140624-3.359375 7.5-7.5 7.5zm0 0" fill="#f98084"/><path d="m393.570312 263.398438h-22.964843c-4.140625 0-7.5-3.359376-7.5-7.5 0-4.140626 3.359375-7.5 7.5-7.5h22.964843c4.140626 0 7.5 3.359374 7.5 7.5 0 4.140624-3.359374 7.5-7.5 7.5zm0 0" fill="#f98084"/><path d="m22.734375 289.117188c-5.285156-.453126-10.121094 2.949218-11.578125 8.046874-3.882812 13.605469-8.570312 41.75 8.816406 66.21875l45.796875-54.378906s-16.597656-17.625-43.035156-19.886718zm0 0" fill="#b8b8b8"/><path d="m209.691406 289.117188c5.285156-.453126 10.121094 2.949218 11.578125 8.046874 3.878907 13.605469 8.570313 41.75-8.816406 66.21875l-45.796875-54.378906s16.59375-17.625 43.035156-19.886718zm0 0" fill="#b8b8b8"/><path d="m218.449219 397.949219c0 56.460937-45.773438 102.234375-102.238281 102.234375-56.460938 0-102.234376-45.773438-102.234376-102.234375 0-56.464844 45.773438-102.238281 102.234376-102.238281 56.464843 0 102.238281 45.773437 102.238281 102.238281zm0 0" fill="#d2d2d2"/><path d="m136.210938 490.183594c-56.460938 0-102.234376-45.773438-102.234376-102.234375 0-36.050781 18.660157-67.738281 46.847657-85.941407-39.019531 14.398438-66.847657 51.917969-66.847657 95.941407 0 56.460937 45.773438 102.234375 102.234376 102.234375 20.414062 0 39.429687-5.988282 55.390624-16.292969-11.027343 4.070313-22.949218 6.292969-35.390624 6.292969zm0 0" fill="#b8b8b8"/><path d="m202.140625 39.585938c39.492187 39.496093-56.910156 44.703124-56.910156 44.703124s5.207031-96.402343 44.703125-56.910156zm0 0" fill="#eb6da8"/><path d="m100.53125 141.195312c39.496094 39.496094 44.699219-56.90625 44.699219-56.90625s-96.398438 5.207032-56.90625 44.699219zm0 0" fill="#eb6da8"/><path d="m132.203125 66.558594-4.699219 4.703125c-7.128906 7.128906-7.128906 18.6875 0 25.816406l4.9375 4.9375c7.132813 7.128906 18.6875 7.128906 25.816406 0l4.703126-4.699219c7.128906-7.132812 7.128906-18.691406 0-25.816406l-4.941407-4.941406c-7.125-7.128906-18.683593-7.128906-25.816406 0zm0 0" fill="#ff98c9"/><path d="m216.167969 231.117188v-16.863282c0-4.140625-3.355469-7.5-7.5-7.5-4.140625 0-7.5 3.359375-7.5 7.5v16.863282c0 4.140624 3.359375 7.496093 7.5 7.496093 4.144531 0 7.5-3.355469 7.5-7.496093zm0 0"/><path d="m389.597656 231.117188v-16.863282c0-4.140625-3.355468-7.5-7.496094-7.5-4.144531 0-7.5 3.359375-7.5 7.5v16.863282c0 4.140624 3.355469 7.496093 7.5 7.496093 4.140626 0 7.496094-3.355469 7.496094-7.496093zm0 0"/><path d="m295.382812 262.445312c8.210938 0 15.921876-3.433593 21.15625-9.425781 2.726563-3.117187 2.410157-7.855469-.710937-10.582031-3.117187-2.726562-7.855469-2.40625-10.582031.710938-2.386719 2.730468-5.980469 4.296874-9.863282 4.296874-3.878906 0-7.472656-1.566406-9.863281-4.296874-2.726562-3.117188-7.460937-3.4375-10.582031-.710938-3.117188 2.726562-3.4375 7.464844-.710938 10.582031 5.238282 5.992188 12.949219 9.425781 21.15625 9.425781zm0 0"/><path d="m62.230469 372.527344c-4.144531 0-7.5 3.359375-7.5 7.5v9.847656c0 4.140625 3.355469 7.5 7.5 7.5 4.140625 0 7.5-3.359375 7.5-7.5v-9.847656c0-4.140625-3.359375-7.5-7.5-7.5zm0 0"/><path d="m171.046875 372.527344c-4.144531 0-7.5 3.359375-7.5 7.5v9.847656c0 4.140625 3.355469 7.5 7.5 7.5 4.140625 0 7.5-3.359375 7.5-7.5v-9.847656c0-4.140625-3.359375-7.5-7.5-7.5zm0 0"/><path d="m139.660156 390.238281c-3.121094-2.726562-7.859375-2.40625-10.585937.710938-.796875.914062-2.035157 1.4375-3.394531 1.4375-1.359376 0-2.597657-.523438-3.394532-1.4375-1.40625-1.605469-3.523437-2.558594-5.652344-2.558594-2.128906 0-4.242187.953125-5.640624 2.558594-.800782.914062-2.035157 1.4375-3.398438 1.4375-1.359375 0-2.597656-.523438-3.394531-1.4375-2.726563-3.117188-7.464844-3.4375-10.582031-.710938-3.121094 2.726563-3.4375 7.464844-.710938 10.582031 3.644531 4.171876 9 6.5625 14.6875 6.5625 3.207031 0 6.292969-.78125 9.042969-2.195312 2.746093 1.414062 5.835937 2.195312 9.042969 2.195312 5.6875 0 11.039062-2.390624 14.6875-6.5625 2.726562-3.117187 2.410156-7.855468-.707032-10.582031zm0 0"/><path d="m116.222656 507.683594c23.660156 0 45.59375-7.527344 63.535156-20.3125h252.453126c4.140624 0 7.5-3.355469 7.5-7.5 0-24.085938-5.441407-44.726563-12.945313-61.75 28.835937-3.253906 47.664063-19.023438 57.359375-47.964844 9.097656-27.152344 9.242188-62.660156 9.242188-100.324219 11.3125-8.632812 18.632812-22.25 18.632812-37.546875 0-14.007812-6.15625-26.617187-15.902344-35.273437-2.628906-45.613281-18.957031-88.035157-47.339844-122.871094-2.617187-3.210937-7.339843-3.695313-10.550781-1.078125-3.210937 2.617188-3.691406 7.339844-1.078125 10.550781 24.25 29.761719 39.035156 65.503907 43.164063 104.058594-3.914063-1.359375-8.078125-2.195313-12.210938-2.46875-.167969-.011719-.332031-.039063-.511719-.054687-.179687-.140626-6.390624-4.972657-8.042968-6.285157-13.675782-10.871093-27.167969-21.972656-40.3125-33.488281-16.675782-14.609375-33.175782-29.746094-47.496094-46.71875-3.179688-3.765625-5.769531-8.4375-9.429688-11.742188-1.945312-1.761718-4.421874-2.875-7.078124-3.140624-3.519532-.351563-7.070313.851562-9.652344 3.261718-10.230469 9.542969-39.675782 34.320313-92.042969 58.15625-3.769531 1.714844-5.4375 6.164063-3.71875 9.933594 1.714844 3.769531 6.160156 5.433594 9.933594 3.71875 28.730469-13.078125 50.910156-26.515625 67.03125-37.765625 12.539062-8.75 21.410156-16.171875 26.84375-21.074219.445312.59375.898437 1.191406 1.363281 1.789063 11.0625 14.328125 23.992188 27.066406 37.191406 39.40625 13.03125 12.179687 26.554688 23.828125 40.324219 35.160156 7.535156 6.203125 15.148437 12.304687 22.847656 18.292969.621094.484375 1.246094.964844 1.867188 1.445312.175781.136719.347656.269532.507812.390625.257813 3.523438.421875 7.039063.484375 10.570313.117188 6.875-.132812 13.792968-.839844 20.636718-6.195312 63.296876-45.140624 116.503907-98.621093 140.402344-.019531.011719-.042969.019532-.066407.03125-19.882812 8.835938-41.503906 13.492188-63.28125 13.492188-25.6875 0-51.082031-6.46875-73.71875-18.605469.03125-.054687.0625-.109375.09375-.164063 9.273438-15.449218 12.117188-34.015624 9.972657-51.75-.652344-5.40625-1.6875-10.769531-3.238281-15.992187-.003907-.011719-.007813-.019531-.011719-.03125-2.484375-8.273437-10.75-14.175781-19.417969-13.433594-12.132812 1.035157-23.964844 5.214844-34.296875 11.609375-3.183594 1.96875-6.242187 4.160156-9.125 6.550782-.035156.03125-.078125.0625-.113281.089843-3.78125-1.902343-7.679688-3.589843-11.660156-5.042969-.199219-.367187-.402344-.734374-.601563-1.105468-3.230469-6.0625-6.101563-12.324219-8.585937-18.730469-.042969-.109375-.085938-.21875-.125-.324219-7.175782-18.582031-11.214844-38.441406-11.894532-58.644531-.195312-5.730469-.105468-11.476563.242188-17.203125.226562-.046875.449218-.09375.675781-.136719 12.5-2.492187 24.9375-5.347656 37.269531-8.582031 11.496094-3.015625 22.894532-6.378906 34.199219-10.050781 8.171875-2.652344 16.230469-5.601563 24.289063-8.570313 3.871093-1.46875 5.816406-5.800781 4.347656-9.675781-1.46875-3.871094-5.800782-5.816406-9.675782-4.347656-13.3125 5.058593-26.835937 9.519531-40.484374 13.566406-11.769532 3.492187-23.679688 6.542969-35.648438 9.265625-7.578125 1.71875-15.1875 3.324219-22.820312 4.773438-2.125.039062-4.242188.242187-6.34375.550781-.027344.003906-.058594.007812-.089844.015625-2.777344.429687-5.5 1.101562-8.132813 2.015625 1.082031-10.015625 2.894531-19.902344 5.425781-29.570313.019532.003906.039063.003906.058594.003906 7.371094.683594 14.214844-3.003906 18.855469-8.5625 5.667969-6.695312 10.074219-17.277343 13.316406-31.960937.21875-.980469.433594-1.960937.632813-2.945313 4.867187-.640624 9.40625-2.648437 13.175781-5.832031 2.785156-2.332031 5.484375-5.054687 7.824219-7.832031 3.238281-3.847656 5.167968-8.421875 5.796875-13.140625.296875-.0625.585937-.125.878906-.1875 6.679687-1.386719 13.320313-3.121094 19.675781-5.625 5.796875-2.28125 11.589844-5.234375 16.070313-9.644531 2.691406-2.652344 4.867187-5.839844 6.019531-9.457032 2.96875-9.316406-1.71875-18.421874-7.71875-25.351562-.234375-.273438-.46875-.554688-.710938-.820312 26.238282-14.25 55.632813-21.742188 85.59375-21.742188 44.890626 0 88.179688 16.910156 121.890626 47.613281 3.0625 2.792969 7.804687 2.566407 10.59375-.492187 2.792968-3.0625 2.570312-7.804688-.492188-10.59375-36.480469-33.226563-83.355469-51.527344-131.992188-51.527344-33.914062 0-67.160156 8.863281-96.535156 25.675781l-3.601562-3.597656c-7.871094-7.871094-15.269532-11.699219-22.617188-11.699219-14.628906 0-25.015625 14.648438-30.914062 43.5625-5.585938.734375-10.75 3.265625-14.800782 7.3125l-4.699218 4.703125c-4.152344 4.152344-6.585938 9.378907-7.300782 14.796875-24.949218 5.058594-38.929687 13.230469-42.648437 24.90625-2.859375 8.992188.761719 18.625 10.769531 28.628906l12.207032 12.207032c2.273437 2.273437 4.503906 4.199218 6.707031 5.800781-3.945313 14.519531-6.371094 29.511719-7.253907 44.691406-9.757812 8.660157-15.925781 21.277344-15.925781 35.296875 0 15.296875 7.320313 28.914063 18.632813 37.546875 0 6.621094.007812 13.359375.070312 19.988281-10.792968 1.867188-21.050781 5.316407-30.527344 10.097657-7.054687-5.894531-22.417968-16.464844-43.558593-18.273438-.523438-.046875-1.058594-.066406-1.582031-.066406-8.234376 0-15.574219 5.5625-17.847657 13.527344-4.28125 15.003906-8.71875 43.453125 7.753907 69.386719-3.386719 10.550781-5.222657 21.792968-5.222657 33.457031 0 60.507812 49.226563 109.734375 109.734375 109.734375zm56.40625-482.304688c1.757813 0 5.65625.949219 12.011719 7.304688 4.070313 4.066406 8.140625 8.136718 12.207031 12.207031 3.222656 3.21875 8.425782 9.253906 7.082032 13.472656-.609376 1.914063-2.25 3.449219-3.804688 4.628907-5.117188 3.878906-11.542969 6.019531-17.652344 7.75-3.023437.855468-6.082031 1.585937-9.160156 2.230468-.050781.011719-.101562.019532-.152344.03125-1.246094-2.519531-2.898437-4.824218-4.882812-6.808594l-4.941406-4.941406c-1.980469-1.980468-4.296876-3.644531-6.808594-4.886718 4.714844-22.726563 11.46875-30.988282 16.101562-30.988282zm-39.808594 51.183594s4.695313-4.699219 4.699219-4.699219c4.136719-4.140625 11.070313-4.144531 15.210938 0 0 0 4.9375 4.9375 4.941406 4.9375 4.109375 4.113281 4.113281 11.097657-.003906 15.210938l-4.699219 4.699219c-2.421875 2.417968-5.894531 3.527343-9.269531 3.003906-3.617188-.5625-5.949219-3.011719-8.410157-5.472656-2.46875-2.46875-4.910156-4.800782-5.472656-8.414063-.003906-.015625-.007812-.035156-.011718-.050781-.488282-3.261719.507812-6.707032 3.015624-9.214844zm-39.179687 47.125c-3.222656-3.222656-8.421875-9.253906-7.082031-13.476562 1.410156-4.425782 10.300781-10.390626 30.769531-14.640626.023437.042969.046875.082032.070313.125 1.773437 3.503907 4.488281 6.359376 7.285156 9.152344 2.839844 2.84375 5.632812 5.554688 9.273437 7.359375-.910156 4.410157-2 8.792969-3.394531 13.078125-1.707031 5.238282-3.839844 10.828125-7.578125 14.988282-5.808594 6.371093-12.535156.21875-17.136719-4.382813 0 0-12.207031-12.203125-12.207031-12.203125zm-72.152344 274.261719c0-42.957031 30.152344-81.535157 71.808594-91.925781 37.863281-9.445313 79.089844 6.335937 101.132813 38.515624 10.695312 15.609376 16.527343 34.488282 16.527343 53.410157 0 39.34375-25.328125 75.492187-62.277343 89.007812-10.378907 3.796875-21.40625 5.726563-32.457032 5.726563-52.234375 0-94.734375-42.5-94.734375-94.734375zm184.097657-100.746094c1.679687-.285156 3.824218-.847656 5.578124-.570313 1.351563.210938 2.511719 1.207032 2.90625 2.589844 1.820313 6.394532 2.957032 13 3.285157 19.640625.117187 2.390625.152343 4.804688.011719 7.191407-.40625 6.925781-1.6875 13.925781-4.21875 20.402343-8.078126-15.183593-19.644532-28.304687-33.769532-38.257812 5.746094-4.023438 14.648438-8.945313 25.796875-10.925781.136719-.023438.273438-.050782.410157-.070313zm-8.667969 175.171875c17.34375-18.6875 27.542969-42.695312 28.882812-68.570312.386719-7.421876.039063-14.902344-1.066406-22.25-.015625-.097657-.023437-.191407-.039063-.289063 4.738282 2.152344 9.589844 4.082031 14.5 5.792969 5.535157 26.277344 28.890626 45.550781 56.191407 45.550781 27.292969 0 50.652343-19.269531 56.1875-45.542969 3.148437-1.105468 6.242187-2.339844 9.335937-3.578125 5.753906-2.394531 11.398438-5.082031 16.894532-8.097656 4.851562 4.351563 13.792968 13.203125 22.558593 26.132813 14.082031 20.773437 22.820313 45.464843 24.152344 70.851562zm103.230469-75.820312c11.394531-.320313 22.976562-1.800782 34.152343-4.429688-6.59375 15.113281-21.699219 25.488281-38.917969 25.488281s-32.320312-10.375-38.914062-25.488281c5.449219 1.277344 10.957031 2.269531 16.5 3.003906 9.003906 1.195313 18.101562 1.679688 27.179688 1.425782zm178.214843-119.046876c-.054687 33.527344-.71875 64.78125-8.460937 87.882813-8.425782 25.144531-24.070313 37.089844-50.421875 38.277344-9.777344-17.15625-20.960938-29.390625-28.320313-36.410157 31.28125-21.019531 55.566406-51.78125 69.359375-87.957031.316407.03125.628907.042969.941407.066407 5.644531.402343 11.441406-.230469 16.902343-1.859376zm1.519531-16.78125c-4.414062 2.355469-9.378906 3.636719-14.378906 3.75 3.339844-11.484374 5.597656-23.261718 6.765625-35.226562.828125-8.453125 1.074219-16.933594.839844-25.425781-.027344-.890625-.050781-1.785157-.089844-2.679688 3.84375 1.011719 7.5 2.765625 10.710938 5.113281 8.035156 5.867188 13.269531 15.355469 13.269531 26.027344 0 12.308594-6.945312 23.019532-17.117188 28.441406zm-372.84375-54.46875c3.164063-2.308593 6.875-4.105468 10.710938-5.113281-.320312 7.050781-.242188 14.121094.191406 21.164063.003906.0625.007813.128906.011719.191406.902344 14.289062 3.347656 28.335938 7.3125 41.976562-4.597656-.105468-9.125-1.1875-13.253906-3.175781-11.027344-5.304687-18.246094-16.78125-18.246094-29.015625 0-10.671875 5.238281-20.160156 13.273437-26.027344zm5.417969 82.019532c-.03125-3.550782-.042969-7.132813-.050781-10.769532.238281.070313.480469.128907.722656.195313 5.558594 1.5625 11.367188 2.125 17.121094 1.597656.265625.703125.558594 1.398438.835938 2.09375 1.109374 2.808594 2.269531 5.601563 3.511718 8.351563-.214844-.035156-.433594-.058594-.652344-.09375-5.859374-.949219-11.785156-1.4375-17.722656-1.4375-.304687 0-3.765625.03125-3.765625.0625zm-94.074219 10.945312c.441407-1.558594 1.851563-2.644531 3.421876-2.644531.101562 0 .199218.003906.300781.011719 13.582031 1.160156 24.363281 6.984375 30.964843 11.609375-14.125 9.953125-25.691406 23.074219-33.769531 38.257812-7.101562-18.160156-3.9375-36.664062-.917969-47.234375zm0 0"/></svg>