<?xml version="1.0" encoding="iso-8859-1"?>
<!-- Generator: Adobe Illustrator 19.0.0, SVG Export Plug-In . SVG Version: 6.00 Build 0)  -->
<svg version="1.1" id="Capa_1" xmlns="http://www.w3.org/2000/svg" xmlns:xlink="http://www.w3.org/1999/xlink" x="0px" y="0px"
	 viewBox="0 0 510.599 510.599" style="enable-background:new 0 0 510.599 510.599;" xml:space="preserve">
<g transform="translate(1 1)">
	<path style="fill:#A4C2F7;" d="M501.062,253.549c0,136.7-110.8,247.5-247.5,247.5c-4.3,0-8.5-0.1-12.7-0.3h-0.2
		c-131.4-7-234.5-115.6-234.5-247.2s103.1-240.2,234.5-247.1h0.2c4.2-0.3,8.4-0.3,12.7-0.3
		C390.262,6.049,501.062,116.849,501.062,253.549z"/>
	<g>
		<path style="fill:#E3E7F2;" d="M475.462,253.549c-0.1,130.6-101.6,238.7-231.9,247c-0.9,0.1-1.8,0.1-2.7,0.2h-0.2
			c-131.4-7-234.5-115.6-234.5-247.2s103.1-240.2,234.5-247.1h0.2C372.362,13.249,475.462,121.849,475.462,253.549z"/>
		<path style="fill:#E3E7F2;" d="M363.562,137.249c-3.2,10-14.9,14.3-22.8,19.8c-10.2,7.7-21.4,14.1-33.3,18.9
			c-11.9,4.3-25.5,4.9-36.2,11.8c-10.7,6.9-10.1,16.9-8.7,28c0.6,2.8-0.1,5.7-1.9,7.9c-3.1,2.3-7.4,2.6-10.8,0.6
			c-7.9-3.2-14.9-8.5-23.7-4.9c-7.8,3.4-12.8,11.2-12.6,19.7c0,18.2,15.7,28.2,28.2,38.3c3.6,3,19.8,20.3,10.2,24.3
			c-2,0.6-4.2,0.5-6.1-0.3c-18.6-4.7-37.2-9.3-55.8-13.8c-15.5-3.8-32.7-8.7-40.4-22.6c-6.6-11.8-4.7-27.2-12.6-38
			c-7-9.5-19.4-12.6-30.6-15.9c-11.3-3.2-23.5-8.6-27.6-19.5c-6.8-18,12.7-37.3,7.9-56c-4.5-17.5-22.9-18.9-36.9-12.7
			c-3,1.3-5.7,3.1-8,5.5l-1.1-1.1c32.2-54.4,84-94.3,144.8-111.6c9.5,14.5,25.4,23.6,42.8,24.5c14.3,0.7,28.6-5,42,3.4
			c7.4,4.2,11.1,12.9,9,21.2c-3.9,11-20.3,16.5-19.3,28.1c0.9,9.2,12.9,13.1,21.8,11s17-7.8,26.2-9.1c14.3-2,27.6,6.8,39.4,15.3
			C356.662,116.549,367.062,126.449,363.562,137.249z"/>
	</g>
	<path style="fill:#A4C2F7;" d="M413.062,442.649c-44.5,37.5-100.8,58.1-159,58c-3.5,0-7-0.1-10.5-0.2
		c56.7-3.5,110.5-26.5,152.1-65.1C401.362,438.049,407.162,440.449,413.062,442.649z"/>
	<path style="fill:#E3E7F2;" d="M395.762,435.349c-41.7,38.6-95.4,61.6-152.1,65.1c-9.5-0.4-18.9-1.4-28.2-2.9
		c-4.1-2.2-8-4.7-11.8-7.3c-9.3-5.7-15.4-15.4-16.5-26.3c0.4-6.5,2.4-12.8,5.8-18.3c4.2-8.2,3.5-18.8,9.8-25.8
		c5.4-5.9,13.7-7.4,19.9-12.2c5.9-4.7,10.7-10.6,14.3-17.2c4.2-10.3,9.6-20.1,16-29.2c11.1-11.7,29.4-6.9,42.1-0.9
		c13.9,6.3,26.6,14.8,37.7,25.2c11.1,11.8,22.9,22.9,35.4,33.2C376.662,425.349,385.862,430.949,395.762,435.349z"/>
</g>
<path style="fill:#FFFFFF;" d="M241.662,501.649h0.2c4.2,0.3,8.4,0.3,12.7,0.3c4.3,0,8.7-0.1,13-0.3h-0.3
	c-86.5-4.5-164.4-53.9-205.3-130.3s-38.9-168.6,5.4-243.1l-0.1-0.1c31.3-52.9,81.3-92.2,140-110.2l1.6-0.5c1.1-0.3,2.1-0.7,3.2-1
	l0.1,0.1c18-5.1,36.5-8.2,55.1-9.2h0.2c-4.3-0.2-8.6-0.3-13-0.3c-4.3,0-8.5,0.1-12.7,0.3h-0.2c-18.7,1-37.2,4.1-55.1,9.2l-0.1-0.1
	c-1.1,0.3-2.1,0.7-3.2,1l-1.6,0.5c-58.7,18-108.7,57.3-140,110.1l0.1,0.1c-44.1,74.6-46.2,166.8-5.3,243.2
	S155.162,497.149,241.662,501.649z"/>
<path style="fill:#428DFF;" d="M255.262,0.049c-23.6,0-47,3.2-69.7,9.6l-0.3,0.1c-62.9,17.8-116.5,59.1-149.7,115.4
	c-0.6,1-1,2.1-1.1,3.2c-4.1,5.4-7.5,11.4-10.1,17.6l-0.6,1.4c-36.7,79.2-30.6,171.5,16.3,245s128,118.1,215.2,118.2
	c58.6,0,115.4-20.2,160.9-57.2c3.7-3.5,7.8-6.7,9-7.7c79.1-70.4,106.4-182.4,68.7-281.4S361.162-0.051,255.262,0.049z
	 M184.362,27.849c11.3,13.8,27.9,22.2,45.7,23.1c4.9,0.1,9.8-0.1,14.6-0.6c7.8-1.8,16-0.8,23.3,2.8c4,2.2,6.3,6.6,5.5,11.1
	c-1.9,3.4-4.4,6.4-7.5,8.7c-7.6,5.2-12.2,13.8-12.3,23c0.6,5.7,3.6,10.9,8.4,14.2c7,4.7,15.7,6.3,23.9,4.3c4.6-1.2,9-2.8,13.3-4.8
	c3.9-1.9,8-3.3,12.2-4.2c10.8-1.5,21.9,5.6,33.2,13.7c5.7,4.1,14.9,11.9,13,17.7c-1.5,4.5-7,7.8-12.8,11.2c-2.4,1.4-4.7,2.8-7.3,4.6
	c-9.4,7.1-19.8,13-30.7,17.4c-4.1,1.4-8.4,2.5-12.6,3.4c-8.9,1.6-17.5,4.7-25.3,9.2c-15.7,10.1-13.8,26.3-12.6,36.1
	c-0.3-0.1-0.6-0.2-0.9-0.3c-1.5-0.6-2.9-1.3-4.3-1.9c-8.8-6-20.3-6.4-29.5-1.2c-9.3,5.2-14.8,15.2-14.3,25.9
	c0,20.2,15,32.1,27.1,41.5l4.2,3.3c2.7,2.4,5.1,5.2,7.2,8.1c-17.2-4.3-34.3-8.6-51.5-12.7c-14.4-3.5-29-7.8-35-18.5
	c-2.3-4.8-3.8-10-4.6-15.3c-1.1-8.4-4-16.5-8.7-23.6c-8.8-9.8-20.6-16.3-33.5-18.5l-1.6-0.4c-12.8-3.8-19.8-8.4-22.1-14.4
	c-1.4-7.8-0.2-15.8,3.6-22.8c4.8-10,6.4-21.3,4.6-32.3c-1.9-8.4-7.5-15.5-15.3-19.3c-4.6-2.1-9.6-3.2-14.7-3.2
	c-1.1,0-2.2,0.1-3.3,0.1C93.862,72.749,136.062,42.749,184.362,27.849z M219.462,490.749c-3.3-1.9-6.6-3.9-9.7-6.1
	c-6.9-4.3-11.6-11.4-12.9-19.4c0.5-5.1,2.1-10.1,4.9-14.5c1.9-4.1,3.3-8.3,4.2-12.7c0.5-4,2-7.8,4.3-11.1c2.5-2.3,5.4-4.1,8.6-5.4
	c3.6-1.6,6.9-3.5,10.1-5.8c6.8-5.4,12.5-12.2,16.6-19.8c2-3.5,3.7-7.3,5.4-11.1c2.3-5.9,5.4-11.5,9.4-16.5c8.5-9,25.3-2.3,32.2,0.9
	c13,5.8,24.9,13.8,35.4,23.5l1,1c11,11.7,22.8,22.7,35.2,32.9c10.3,7.9,21.5,14.5,33.4,19.5
	C346.362,484.249,282.262,500.249,219.462,490.749L219.462,490.749z M412.462,434.049c-13.5-5-26.3-12-37.8-20.7
	c-11.8-9.8-23.1-20.3-33.6-31.5l-1-1c-11.8-11.1-25.3-20.2-40.1-26.9c-21.6-10.4-40.5-9.4-52,2.7c-5.3,6.3-9.6,13.5-12.6,21.2
	c-1.5,3.4-3,6.7-4.7,9.6c-3,5.7-7.2,10.7-12.2,14.7c-2.2,1.6-4.6,2.9-7.1,4c-5.2,2.1-9.9,5.3-13.9,9.3c-4.3,5.4-7.2,11.8-8.3,18.7
	c-0.6,3.1-1.5,6-2.8,8.9c-4.1,6.8-6.4,14.5-6.8,22.4c0.1,6.2,1.9,12.2,5.2,17.5c-65.5-20.4-119.2-68.2-147.2-131.1
	s-27.3-134.8,1.6-197.2l0.6-1.4c2.3-6.1,5.8-11.7,10.2-16.6c1.6-1.6,3.4-2.8,5.5-3.7c3.7-1.6,7.7-2.5,11.7-2.6
	c2.5-0.1,5,0.4,7.2,1.5c3.2,1.6,5.5,4.6,6.2,8.2c0.7,7.6-0.7,15.3-4.1,22.2c-5.4,10.7-6.7,23.1-3.5,34.7c5.7,15,21.7,21.2,33.3,24.7
	l1.7,0.5c9.2,1.5,17.8,5.8,24.5,12.3c3,5.1,4.9,10.9,5.6,16.8c1,7.1,3.2,13.9,6.4,20.3c9.3,16.7,28.6,22.6,45.9,26.7
	c18.6,4.5,37.2,9.1,55.8,13.8c3.7,1.2,7.8,1.2,11.5-0.1c4.3-1.7,7.4-5.5,8.1-10.1c1.9-12.9-15.9-28.5-16.2-28.7l-4.5-3.6
	c-10.6-8.3-20.6-16.2-20.6-28.2c-0.1-5,2.8-9.7,7.4-11.8c3.2-1.3,5.8-0.4,12,2.6c1.7,0.8,3.4,1.6,5,2.2c6.6,3.6,14.8,2.5,20.3-2.6
	c3.6-4,5.1-9.5,4.1-14.8c-1.4-11.4-0.9-16.1,4.9-19.8c6.2-3.4,12.9-5.7,19.9-6.9c4.9-1.1,9.8-2.4,14.5-4c12.6-5,24.4-11.7,35.3-19.9
	c1.7-1.2,3.7-2.3,5.7-3.5c9.1-4.1,16.4-11.5,20.4-20.7c4-12.3-2.5-24.7-19.3-36.9c-10.8-7.7-27.2-19.4-45.6-16.8
	c-5.7,1.1-11.3,2.9-16.5,5.4c-3.3,1.6-6.8,2.9-10.4,3.8c-3.4,0.8-7,0.2-10-1.6c-1.3-0.9-1.3-1.6-1.3-1.9c-0.2-2.2,2.6-5,6.8-8.9
	c5.3-4.1,9.4-9.5,12-15.7c3.5-12.1-1.7-25-12.6-31.3c-10.3-5.7-22.3-7.6-33.9-5.3c-4.1,0.5-8.1,0.7-12.2,0.6
	c-10.2-0.6-19.9-4.5-27.7-11.1c106.1-23.6,215,27.6,264.4,124.6S494.262,362.249,412.462,434.049z"/>
<g>
</g>
<g>
</g>
<g>
</g>
<g>
</g>
<g>
</g>
<g>
</g>
<g>
</g>
<g>
</g>
<g>
</g>
<g>
</g>
<g>
</g>
<g>
</g>
<g>
</g>
<g>
</g>
<g>
</g>
</svg>
