<svg height="512" viewBox="0 0 192 192" width="512" xmlns="http://www.w3.org/2000/svg" xmlns:xlink="http://www.w3.org/1999/xlink"><linearGradient id="New_Gradient_Swatch_2" gradientUnits="userSpaceOnUse" x1="112.727" x2="175.273" y1="77.857" y2="15.31"><stop offset="0" stop-color="#ff85a6"/><stop offset="1" stop-color="#e8d9f1"/></linearGradient><path d="m168 144a24.027 24.027 0 0 1 -24-24h16a8 8 0 1 0 8-8v-16a24 24 0 0 1 0 48z" fill="#ff9db8"/><path d="m48 168h16v24h-16z" fill="#ffb6ca"/><path d="m104 168h16v24h-16z" fill="#ffb6ca"/><path d="m104 64h-19.719l-13.625-20.437a8 8 0 0 0 -13.883 1.006l-10.607 22.342a55.9 55.9 0 0 0 -32.766 29.089h-5.4a8 8 0 0 0 -8 8v32a8 8 0 0 0 8 8h5.4a56.11 56.11 0 0 0 50.6 32h40a56 56 0 0 0 0-112z" fill="#ffe7ed"/><path d="m112 168h-40a56.11 56.11 0 0 1 -50.6-32h-5.4a8 8 0 0 1 -8-8v-32a8 8 0 0 0 -8 8v32a8 8 0 0 0 8 8h5.4a56.11 56.11 0 0 0 50.6 32h40a55.906 55.906 0 0 0 43.374-20.626 55.731 55.731 0 0 1 -35.374 12.626z" fill="#ffcedb"/><circle cx="48" cy="104" fill="#ff9db8" r="8"/><path d="m177.6 19.074c-5.463-2.925-16.783-6.047-33.6 3.526-16.817-9.572-28.136-6.45-33.6-3.526-9.152 4.897-14.4 15.441-14.4 28.926 0 26.509 40.152 45.252 44.73 47.3a8.009 8.009 0 0 0 6.54 0c4.578-2.048 44.73-20.791 44.73-47.3 0-13.485-5.248-24.029-14.4-28.926z" fill="url(#New_Gradient_Swatch_2)"/><path d="m104 96h-8v-8h-16v10.165a15.986 15.986 0 0 0 8 29.835h-16v16h8v8h16v-10.165a15.986 15.986 0 0 0 -8-29.835h16z" fill="#ff9db8"/></svg>