<svg height="512pt" viewBox="-25 0 512 512" width="512pt" xmlns="http://www.w3.org/2000/svg"><path d="m424.164062 177.796875-156.066406 156.066406c-8.148437 8.148438-21.359375 8.148438-29.507812 0l-90.777344-90.777343c-8.152344-8.152344-8.152344-21.363282 0-29.511719l156.0625-156.0625c8.148438-8.152344 21.363281-8.152344 29.511719 0l90.777343 90.777343c8.148438 8.148438 8.148438 21.359376 0 29.507813zm0 0" fill="#89d47f"/><path d="m238.589844 333.863281c8.148437 8.148438 21.359375 8.148438 29.507812 0l90.210938-90.214843c-69.59375-23.105469-91-92.59375-91.644532-148.925782l-118.851562 118.851563c-8.152344 8.148437-8.152344 21.363281 0 29.511719zm0 0" fill="#5ec783"/><path d="m424.164062 177.796875-156.066406 156.066406c-8.148437 8.148438-21.359375 8.148438-29.507812 0l-45.390625-45.390625 185.574219-185.574218 45.390624 45.386718c8.148438 8.152344 8.148438 21.363282 0 29.511719zm0 0" fill="#f7ef87"/><path d="m256.953125 108.332031c0 55.6875-45.140625 100.828125-100.828125 100.828125s-100.832031-45.140625-100.832031-100.828125 45.144531-100.832031 100.832031-100.832031 100.828125 45.144531 100.828125 100.832031zm0 0" fill="#eea849"/><path d="m206.742188 195.546875c-85.503907-17.398437-125.730469-99.332031-111.210938-167.816406-24.433594 18.402343-40.238281 47.65625-40.238281 80.597656 0 55.6875 45.144531 100.832031 100.832031 100.832031 18.449219 0 35.742188-4.960937 50.617188-13.613281zm0 0" fill="#e9901b"/><g fill="#f7ef87"><path d="m172.800781 115.832031h-56.492187c-4.140625 0-7.5-3.359375-7.5-7.5 0-4.144531 3.359375-7.5 7.5-7.5h56.492187c10.097657 0 18.3125-8.214843 18.3125-18.3125 0-10.09375-8.214843-18.308593-18.3125-18.308593h-56.492187c-4.140625 0-7.5-3.359376-7.5-7.5 0-4.140626 3.359375-7.5 7.5-7.5h56.492187c18.367188 0 33.3125 14.941406 33.3125 33.308593 0 18.367188-14.945312 33.3125-33.3125 33.3125zm0 0"/><path d="m172.800781 167.449219h-56.492187c-4.140625 0-7.5-3.355469-7.5-7.5 0-4.140625 3.359375-7.5 7.5-7.5h56.492187c10.097657 0 18.3125-8.210938 18.3125-18.308594s-8.214843-18.3125-18.3125-18.3125c-4.140625 0-7.5-3.355469-7.5-7.5 0-4.140625 3.359375-7.5 7.5-7.5 18.367188 0 33.3125 14.945313 33.3125 33.3125s-14.945312 33.308594-33.3125 33.308594zm0 0"/><path d="m136.023438 184.246094c-4.144532 0-7.5-3.359375-7.5-7.5v-136.828125c0-4.144531 3.355468-7.5 7.5-7.5 4.140624 0 7.5 3.355469 7.5 7.5v136.828125c0 4.140625-3.359376 7.5-7.5 7.5zm0 0"/><path d="m166.273438 64.210938c-4.144532 0-7.5-3.359376-7.5-7.5v-16.105469c0-4.140625 3.355468-7.5 7.5-7.5 4.140624 0 7.5 3.359375 7.5 7.5v16.105469c0 4.140624-3.359376 7.5-7.5 7.5zm0 0"/><path d="m166.273438 183.554688c-4.144532 0-7.5-3.359376-7.5-7.5v-16.105469c0-4.140625 3.355468-7.5 7.5-7.5 4.140624 0 7.5 3.359375 7.5 7.5v16.105469c0 4.140624-3.359376 7.5-7.5 7.5zm0 0"/></g><path d="m371.144531 504.5h-332.570312c-17.164063 0-31.074219-13.910156-31.074219-31.074219v-254.160156c0-17.164063 13.910156-31.074219 31.074219-31.074219h332.570312c46.539063 0 84.261719 37.722656 84.261719 84.257813v147.789062c0 46.535157-37.726562 84.261719-84.261719 84.261719zm0 0" fill="#e1b89a"/><path d="m170.617188 188.191406h-132.042969c-17.164063 0-31.074219 13.910156-31.074219 31.074219v254.164063c0 17.160156 13.910156 31.070312 31.074219 31.070312h181.734375c-48.367188-50.539062-82.554688-234.195312-49.691406-316.308594zm0 0" fill="#d2996f"/><path d="m364.988281 461.535156h-357.488281v-15h357.488281c15.371094 0 27.875-12.503906 27.875-27.878906v-144.625c0-15.371094-12.503906-27.875-27.875-27.875h-357.488281v-15h357.488281c23.644531 0 42.875 19.234375 42.875 42.875v144.625c.003907 23.644531-19.230469 42.878906-42.875 42.878906zm0 0" fill="#6e7ca8"/><path d="m360.957031 476.476562h-85.316406c-7.230469 0-13.09375-5.859374-13.09375-13.089843v-18.847657c0-7.230468 5.863281-13.09375 13.09375-13.09375h85.316406c7.230469 0 13.09375 5.863282 13.09375 13.09375v18.847657c0 7.230469-5.863281 13.089843-13.09375 13.089843zm0 0" fill="#f7ef87"/><path d="m140.617188 357.855469c0-16.28125-16.574219-29.484375-37.019532-29.484375-20.449218 0-37.023437 13.203125-37.023437 29.484375 0 16.285156 16.574219 29.484375 37.023437 29.484375 20.445313 0 37.019532-13.199219 37.019532-29.484375zm0 0" fill="#fff"/><path d="m341.292969 357.855469c0-16.28125-16.578125-29.484375-37.023438-29.484375-20.445312 0-37.023437 13.203125-37.023437 29.484375 0 16.285156 16.578125 29.484375 37.023437 29.484375 20.445313 0 37.023438-13.199219 37.023438-29.484375zm0 0" fill="#fff"/><path d="m282.691406 335.945312c4.144532 0 7.5-3.359374 7.5-7.5v-13.074218c0-4.140625-3.355468-7.5-7.5-7.5-4.140625 0-7.5 3.359375-7.5 7.5v13.074218c0 4.140626 3.359375 7.5 7.5 7.5zm-27.644531 108.59375v18.847657c0 11.351562 9.238281 20.589843 20.59375 20.589843h85.316406c11.355469 0 20.59375-9.238281 20.59375-20.589843v-18.847657c0-11.355468-9.238281-20.59375-20.59375-20.59375h-85.316406c-11.355469 0-20.59375 9.238282-20.59375 20.59375zm15 0c0-3.082031 2.507813-5.59375 5.59375-5.59375h85.316406c3.082031 0 5.59375 2.507813 5.59375 5.59375v18.847657c0 3.082031-2.507812 5.589843-5.59375 5.589843h-85.316406c-3.085937 0-5.59375-2.507812-5.59375-5.589843zm148.570313-250.589843 10.847656-10.847657c6-6 8.980468-14.289062 8.183594-22.742187-.390626-4.121094-4.050782-7.144531-8.171876-6.757813-4.125.386719-7.152343 4.046876-6.761718 8.171876.378906 3.984374-1.027344 7.894531-3.855469 10.71875l-14.441406 14.445312c-10.320313-4.03125-21.542969-6.246094-33.273438-6.246094h-59.554687l67.183594-67.183594 25.839843 25.835938c1.464844 1.464844 3.382813 2.199219 5.300781 2.199219 1.921876 0 3.839844-.734375 5.304688-2.199219 2.929688-2.929688 2.929688-7.675781 0-10.605469l-31.140625-31.140625c-.003906-.003906-.003906-.003906-.003906-.003906l-45.386719-45.386719c-5.359375-5.359375-12.480469-8.308593-20.058594-8.308593-7.574218 0-14.699218 2.949218-20.058594 8.308593l-36 36c-9.457031-50.152343-53.589843-88.207031-106.445312-88.207031-59.734375 0-108.332031 48.597656-108.332031 108.332031 0 27.148438 9.914062 52.648438 27.691406 72.359375h-36.910156c-21.269531 0-38.574219 17.304688-38.574219 38.574219v254.160156c0 21.269531 17.304688 38.574219 38.574219 38.574219h10.195312c4.140625 0 7.5-3.359375 7.5-7.5s-3.359375-7.5-7.5-7.5h-10.195312c-13 0-23.574219-10.574219-23.574219-23.574219v-254.160156c0-13 10.574219-23.574219 23.574219-23.574219h55.984375.007812.007813 276.570312c42.328125 0 76.761719 34.433594 76.761719 76.761719v147.785156c0 42.328125-34.433594 76.761719-76.761719 76.761719h-286.792969c-4.140624 0-7.5 3.359375-7.5 7.5s3.359376 7.5 7.5 7.5h286.792969c50.597657 0 91.761719-41.164062 91.761719-91.761719v-147.789062c0-33.234375-17.761719-62.398438-44.289062-78.5zm-203.554688-13.257813h-117.875c-21.890625-17.828125-34.394531-44.054687-34.394531-72.363281 0-51.460937 41.867187-93.328125 93.332031-93.328125 51.460938 0 93.328125 41.867188 93.328125 93.332031 0 28.304688-12.503906 54.53125-34.390625 72.359375zm21.703125 0c17.773437-19.714844 27.6875-45.210937 27.6875-72.363281 0-.261719-.007813-.519531-.007813-.78125l44.734376-44.734375c2.523437-2.523438 5.878906-3.914062 9.453124-3.914062 3.570313 0 6.925782 1.390624 9.449219 3.914062l40.085938 40.085938-77.792969 77.792968zm-32.832031 165.292969c10.125 0 19.753906-4.386719 26.417968-12.035156 2.722657-3.121094 2.394532-7.859375-.726562-10.582031-3.121094-2.71875-7.859375-2.394532-10.582031.730468-3.8125 4.375-9.320313 6.886719-15.109375 6.886719-5.789063 0-11.296875-2.511719-15.109375-6.886719-2.722657-3.125-7.460938-3.449218-10.582031-.730468-3.125 2.722656-3.449219 7.460937-.726563 10.582031 6.664063 7.648437 16.292969 12.035156 26.417969 12.035156zm-71.261719-17.539063v-13.074218c0-4.140625-3.355469-7.5-7.5-7.5-4.140625 0-7.5 3.359375-7.5 7.5v13.074218c0 4.140626 3.359375 7.5 7.5 7.5 4.144531 0 7.5-3.359374 7.5-7.5zm0 0"/></svg>